<svg width="24" height="24" viewBox="0 0 24 24" fill="none" xmlns="http://www.w3.org/2000/svg">
<g clip-path="url(#clip0_154_2805)">
<path d="M12 4.00021C15.87 4.00021 19 7.13021 19 11.0002V13.0002H16.08L21 17.9202V11.0002C21 6.03021 16.97 2.00021 12 2.00021C10.05 2.00021 8.24 2.62021 6.77 3.68021L8.21 5.12021C9.3 4.41021 10.6 4.00021 12 4.00021ZM2.27 1.72021L1 3.00021L4.33 6.32022C3.49 7.68022 3 9.29021 3 11.0002V18.0002C3 19.6602 4.34 21.0002 6 21.0002H9V13.0002H5V11.0002C5 9.83021 5.29 8.74022 5.79 7.78022L15 17.0002V21.0002H18C18.3 21.0002 18.59 20.9402 18.86 20.8602L21 23.0002L22.27 21.7302L2.27 1.72021Z" fill="#323232"/>
</g>
<defs>
<clipPath id="clip0_154_2805">
<rect width="24" height="24" fill="white"/>
</clipPath>
</defs>
</svg>
