<svg width="34" height="34" viewBox="0 0 34 34" fill="none" xmlns="http://www.w3.org/2000/svg">
<g clip-path="url(#clip0_295_1876)">
<path d="M24.2794 20.5662C25.0373 20.8736 25.9059 20.6886 26.4728 20.0991L28.3794 18.1163C29.1047 17.362 29.0813 16.1627 28.327 15.4374C21.9155 9.27231 11.7199 9.47214 5.55481 15.8837C4.82951 16.638 4.85321 17.8373 5.60751 18.5626L7.59034 20.4699C8.17984 21.0367 9.05487 21.1875 9.8001 20.8507L12.3874 19.681C13.0568 19.3784 13.5065 18.7335 13.5587 18.0008L13.6212 17.117C13.6947 16.0852 14.543 15.2789 15.5773 15.2586L18.2876 15.2067C19.3218 15.1865 20.2014 15.9573 20.3152 16.9854L20.4124 17.8659C20.4932 18.5961 20.9673 19.2238 21.6481 19.4999L24.2794 20.5662Z" stroke="white" stroke-width="2" stroke-linecap="round" stroke-linejoin="round"/>
</g>
<defs>
<clipPath id="clip0_295_1876">
<rect width="24" height="24" fill="white" transform="translate(33.9346 16.6675) rotate(133.877)"/>
</clipPath>
</defs>
</svg>
