<svg width="25" height="24" viewBox="0 0 25 24" fill="none" xmlns="http://www.w3.org/2000/svg">
<path d="M1.79871 0L23.0098 21.2111L21.2111 23.0097L3.386e-05 1.79867L1.79871 0Z" fill="#323232"/>
<g clip-path="url(#clip0_1539_656)">
<path d="M7 22H19L13 16L7 22Z" fill="#323232"/>
<path d="M22 3H4C2.9 3 2 3.9 2 5V17C2 18.1 2.9 19 4 19H8V17H4V5H22V17H18V19H22C23.1 19 24 18.1 24 17V5C24 3.9 23.1 3 22 3Z" fill="#323232"/>
</g>
<defs>
<clipPath id="clip0_1539_656">
<rect width="24" height="24" fill="white" transform="translate(1)"/>
</clipPath>
</defs>
</svg>
