<svg width="18" height="18" viewBox="0 0 18 18" fill="none" xmlns="http://www.w3.org/2000/svg">
<rect width="18" height="18" fill="#ECECEC"/>
<g id="Home - &#236;&#180;&#136;&#234;&#184;&#176; &#236;&#160;&#145;&#236;&#134;&#141; &#237;&#153;&#148;&#235;&#169;&#180; (&#236;&#149;&#132;&#235;&#172;&#180;&#234;&#178;&#131;&#235;&#143;&#132; &#235;&#147;&#177;&#235;&#161;&#157;&#235;&#144;&#152;&#236;&#167;&#128; &#236;&#149;&#138;&#236;&#149;&#152;&#236;&#157;&#132; &#235;&#149;&#140;)" clip-path="url(#clip0_154_2)">
<rect width="1440" height="960" transform="translate(-357 -305)" fill="#F4F4F4"/>
<g id="List" filter="url(#filter0_d_154_2)">
<rect x="-27" y="-155" width="1024" height="225" rx="8" fill="white"/>
<rect x="-26.5" y="-154.5" width="1023" height="224" rx="7.5" stroke="#E0E0E0"/>
<g id="Frame 2610404">
<mask id="path-3-inside-1_154_2" fill="white">
<path d="M-3 -15H973V33H-3V-15Z"/>
</mask>
<path d="M-3 -14H973V-16H-3V-14Z" fill="#E0E0E0" mask="url(#path-3-inside-1_154_2)"/>
<path id="Vector" d="M5.70696 11.3644L11.3638 5.70757M3.58601 7.82866L2.1718 9.24287C0.609702 10.805 0.609249 13.3378 2.17135 14.8999C3.73344 16.462 6.26686 16.4616 7.82896 14.8995L9.24166 13.4854M7.82805 3.58565L9.24226 2.17143C10.8044 0.609336 13.3367 0.609615 14.8988 2.17171C16.4609 3.73381 16.4608 6.26649 14.8987 7.82859L13.4853 9.24276" stroke="black" stroke-width="2" stroke-linecap="round" stroke-linejoin="round"/>
</g>
</g>
</g>
<defs>
<filter id="filter0_d_154_2" x="-39" y="-163" width="1048" height="249" filterUnits="userSpaceOnUse" color-interpolation-filters="sRGB">
<feFlood flood-opacity="0" result="BackgroundImageFix"/>
<feColorMatrix in="SourceAlpha" type="matrix" values="0 0 0 0 0 0 0 0 0 0 0 0 0 0 0 0 0 0 127 0" result="hardAlpha"/>
<feOffset dy="4"/>
<feGaussianBlur stdDeviation="6"/>
<feComposite in2="hardAlpha" operator="out"/>
<feColorMatrix type="matrix" values="0 0 0 0 0 0 0 0 0 0 0 0 0 0 0 0 0 0 0.04 0"/>
<feBlend mode="normal" in2="BackgroundImageFix" result="effect1_dropShadow_154_2"/>
<feBlend mode="normal" in="SourceGraphic" in2="effect1_dropShadow_154_2" result="shape"/>
</filter>
<clipPath id="clip0_154_2">
<rect width="1440" height="960" fill="white" transform="translate(-357 -305)"/>
</clipPath>
</defs>
</svg>
